<svg width="227" height="213" xmlns="http://www.w3.org/2000/svg" xmlns:xlink="http://www.w3.org/1999/xlink" xml:space="preserve" overflow="hidden"><defs><clipPath id="clip0"><rect x="834" y="384" width="227" height="213"/></clipPath><clipPath id="clip1"><rect x="841" y="391" width="214" height="200"/></clipPath><clipPath id="clip2"><rect x="883" y="391" width="130" height="200"/></clipPath><clipPath id="clip3"><rect x="883" y="391" width="130" height="200"/></clipPath></defs><g clip-path="url(#clip0)" transform="translate(-834 -384)"><g clip-path="url(#clip1)"><g clip-path="url(#clip2)"><g clip-path="url(#clip3)"><path d="M122.675 59.4845 6.43994 59.4845C3.65061 59.4845 1.09281 57.5651 1.09281 55.069 1.09281 52.5728 3.41751 50.6535 6.43994 50.6535L122.675 50.6535C125.464 50.6535 128.022 52.5728 128.022 55.069 128.022 57.5651 125.465 59.4845 122.675 59.4845Z" stroke="#000000" stroke-width="0.790176" stroke-linecap="butt" stroke-linejoin="miter" stroke-miterlimit="10" stroke-opacity="1" fill="#159E1F" fill-rule="nonzero" fill-opacity="1" transform="matrix(1 0 0 1.00194 883.443 391.345)"/><path d="M122.675 157.334 6.43994 157.334C3.65061 157.334 1.09281 155.414 1.09281 152.918 1.09281 150.422 3.41751 148.503 6.43994 148.503L122.675 148.503C125.464 148.503 128.022 150.422 128.022 152.918 128.022 155.414 125.465 157.334 122.675 157.334Z" stroke="#000000" stroke-width="0.790176" stroke-linecap="butt" stroke-linejoin="miter" stroke-miterlimit="10" stroke-opacity="1" fill="#159E1F" fill-rule="nonzero" fill-opacity="1" transform="matrix(1 0 0 1.00194 883.443 391.345)"/><path d="M64.5574 157.334C61.7681 157.334 59.2103 155.414 59.2103 152.918L59.2103 55.069C59.2103 52.7656 61.535 50.6535 64.5574 50.6535 67.5798 50.6535 69.9045 52.5728 69.9045 55.069L69.9045 152.919C69.6714 155.222 67.3467 157.334 64.5574 157.334Z" stroke="#000000" stroke-width="0.790176" stroke-linecap="butt" stroke-linejoin="miter" stroke-miterlimit="10" stroke-opacity="1" fill="#159E1F" fill-rule="nonzero" fill-opacity="1" transform="matrix(1 0 0 1.00194 883.443 391.345)"/><path d="M76.8786 55.069C76.8786 60.6881 71.3622 65.2433 64.5574 65.2433 57.7526 65.2433 52.2362 60.6881 52.2362 55.069 52.2362 49.4498 57.7526 44.8946 64.5574 44.8946 71.3622 44.8946 76.8786 49.4498 76.8786 55.069Z" stroke="#000000" stroke-width="0.790176" stroke-linecap="butt" stroke-linejoin="miter" stroke-miterlimit="10" stroke-opacity="1" fill="#159E1F" fill-rule="nonzero" fill-opacity="1" transform="matrix(1 0 0 1.00194 883.443 391.345)"/><path d="M76.8786 152.919C76.8786 158.538 71.3622 163.093 64.5574 163.093 57.7526 163.093 52.2362 158.538 52.2362 152.919 52.2362 147.3 57.7526 142.745 64.5574 142.745 71.3622 142.745 76.8786 147.3 76.8786 152.919Z" stroke="#000000" stroke-width="0.790176" stroke-linecap="butt" stroke-linejoin="miter" stroke-miterlimit="10" stroke-opacity="1" fill="#159E1F" fill-rule="nonzero" fill-opacity="1" transform="matrix(1 0 0 1.00194 883.443 391.345)"/><path d="M23.1774 76.7617 3.64982 76.7617C2.02285 76.7617 0.395088 75.6096 0.395088 74.0751L0.395088 36.0676C0.395088 34.7243 1.78975 33.381 3.64982 33.381L23.1774 33.381C24.8044 33.381 26.4322 34.5331 26.4322 36.0676L26.4322 74.0751C26.154 75.6483 24.7752 76.7869 23.1774 76.7617Z" stroke="#000000" stroke-width="0.790176" stroke-linecap="butt" stroke-linejoin="miter" stroke-miterlimit="10" stroke-opacity="1" fill="#159E1F" fill-rule="nonzero" fill-opacity="1" transform="matrix(1 0 0 1.00194 883.443 391.345)"/><path d="M125.465 76.7617 105.937 76.7617C104.31 76.7617 102.683 75.6096 102.683 74.0751L102.683 36.0676C102.683 34.7243 104.077 33.381 105.937 33.381L125.465 33.381C127.092 33.381 128.72 34.5331 128.72 36.0676L128.72 74.0751C128.442 75.6483 127.063 76.7869 125.465 76.7617Z" stroke="#000000" stroke-width="0.790176" stroke-linecap="butt" stroke-linejoin="miter" stroke-miterlimit="10" stroke-opacity="1" fill="#159E1F" fill-rule="nonzero" fill-opacity="1" transform="matrix(1 0 0 1.00194 883.443 391.345)"/><path d="M23.1774 175.383 3.64982 175.383C2.02285 175.383 0.395088 174.231 0.395088 172.696L0.395088 134.689C0.395088 133.345 1.78975 132.002 3.64982 132.002L23.1774 132.002C24.8044 132.002 26.4322 133.154 26.4322 134.689L26.4322 172.696C26.0877 174.23 24.7483 175.335 23.1774 175.383Z" stroke="#000000" stroke-width="0.790176" stroke-linecap="butt" stroke-linejoin="miter" stroke-miterlimit="10" stroke-opacity="1" fill="#159E1F" fill-rule="nonzero" fill-opacity="1" transform="matrix(1 0 0 1.00194 883.443 391.345)"/><path d="M125.465 175.383 105.937 175.383C104.31 175.383 102.683 174.231 102.683 172.696L102.683 134.689C102.683 133.345 104.077 132.002 105.937 132.002L125.465 132.002C127.092 132.002 128.72 133.154 128.72 134.689L128.72 172.696C128.375 174.23 127.036 175.335 125.465 175.383Z" stroke="#000000" stroke-width="0.790176" stroke-linecap="butt" stroke-linejoin="miter" stroke-miterlimit="10" stroke-opacity="1" fill="#159E1F" fill-rule="nonzero" fill-opacity="1" transform="matrix(1 0 0 1.00194 883.443 391.345)"/><path d="M103.832 194.551C103.832 194.551 106.756 191.984 106.756 189.519L106.756 35.3398C106.756 24.4022 102.584 11.9459 97.0731 7.72634 87.8858-0.466204 64.7352 0.419584 64.5558 0.425905 64.3756 0.419584 41.2259-0.465414 32.0385 7.72634 26.5278 11.9459 22.3557 24.3991 22.3557 35.3398L22.3557 189.518C22.3557 191.983 25.2793 194.55 25.2793 194.55L25.2793 198.529 103.83 198.529 103.83 194.55 103.832 194.551Z" stroke="#000000" stroke-width="0.790176" stroke-linecap="butt" stroke-linejoin="miter" stroke-miterlimit="10" stroke-opacity="1" fill="#4EC3E8" fill-rule="nonzero" fill-opacity="1" transform="matrix(1 0 0 1.00194 883.443 391.345)"/><path d="M32.2218 14.495C31.9144 12.6468 36.8428 6.79235 47.6231 6.79235L47.6231 18.2657 39.9213 19.4968C39.9213 19.4968 32.5292 16.3448 32.2218 14.495Z" stroke="#000000" stroke-width="0.790176" stroke-linecap="butt" stroke-linejoin="miter" stroke-miterlimit="10" stroke-opacity="1" fill="#FFFFFF" fill-rule="nonzero" fill-opacity="1" transform="matrix(1 0 0 1.00194 883.443 391.345)"/><path d="M89.1911 19.4992 81.4917 18.2681 81.4917 6.79472C92.2744 6.79472 97.2027 12.6476 96.893 14.4974 96.5832 16.3472 89.1911 19.4992 89.1911 19.4992Z" stroke="#000000" stroke-width="0.790176" stroke-linecap="butt" stroke-linejoin="miter" stroke-miterlimit="10" stroke-opacity="1" fill="#FFFFFF" fill-rule="nonzero" fill-opacity="1" transform="matrix(1 0 0 1.00194 883.443 391.345)"/><path d="M50.6882 138.277 63.3026 138.277 63.3026 186.074 50.6882 186.074Z" stroke="#000000" stroke-width="0.790176" stroke-linecap="butt" stroke-linejoin="miter" stroke-miterlimit="10" stroke-opacity="1" fill="#FFFFFF" fill-rule="nonzero" fill-opacity="1" transform="matrix(1 0 0 1.00194 883.443 391.345)"/><path d="M65.8146 138.277 78.4289 138.277 78.4289 186.074 65.8146 186.074Z" stroke="#000000" stroke-width="0.790176" stroke-linecap="butt" stroke-linejoin="miter" stroke-miterlimit="10" stroke-opacity="1" fill="#FFFFFF" fill-rule="nonzero" fill-opacity="1" transform="matrix(1 0 0 1.00194 883.443 391.345)"/><path d="M80.9417 138.277 92.3811 138.277 92.2776 183.813 80.9417 185.876Z" stroke="#000000" stroke-width="0.790176" stroke-linecap="butt" stroke-linejoin="miter" stroke-miterlimit="10" stroke-opacity="1" fill="#FFFFFF" fill-rule="nonzero" fill-opacity="1" transform="matrix(1 0 0 1.00194 883.443 391.345)"/><path d="M100.98 141.355 97.8981 148.546C97.8981 148.546 94.6133 133.349 94.6133 128.626 94.6133 123.903 93.5861 94.332 95.6406 83.8535 97.695 73.375 98.5152 70.2996 98.5152 70.2996L100.159 71.1222 100.98 141.355Z" stroke="#000000" stroke-width="0.790176" stroke-linecap="butt" stroke-linejoin="miter" stroke-miterlimit="10" stroke-opacity="1" fill="#FFFFFF" fill-rule="nonzero" fill-opacity="1" transform="matrix(1 0 0 1.00194 883.443 391.345)"/><path d="M91.564 80.5648 64.8687 80.5648 64.2524 80.5648 37.5587 80.5648 31.3992 59.8234 46.1803 52.636 79.8678 52.636 82.9385 52.636 97.7234 59.8234Z" stroke="#000000" stroke-width="0.790176" stroke-linecap="butt" stroke-linejoin="miter" stroke-miterlimit="10" stroke-opacity="1" fill="#FFFFFF" fill-rule="nonzero" fill-opacity="1" transform="matrix(1 0 0 1.00194 883.443 391.345)"/><path d="M28.9552 71.1206 30.5988 70.2996C30.5988 70.2996 31.4198 73.3813 33.4734 83.8535 35.5271 94.3257 34.5007 123.901 34.5007 128.626 34.5007 133.35 31.2159 148.546 31.2159 148.546L28.1342 141.355 28.9552 71.1206Z" stroke="#000000" stroke-width="0.790176" stroke-linecap="butt" stroke-linejoin="miter" stroke-miterlimit="10" stroke-opacity="1" fill="#FFFFFF" fill-rule="nonzero" fill-opacity="1" transform="matrix(1 0 0 1.00194 883.443 391.345)"/><path d="M36.7337 138.277 48.1731 138.277 48.1731 185.876 36.8372 183.813Z" stroke="#000000" stroke-width="0.790176" stroke-linecap="butt" stroke-linejoin="miter" stroke-miterlimit="10" stroke-opacity="1" fill="#FFFFFF" fill-rule="nonzero" fill-opacity="1" transform="matrix(1 0 0 1.00194 883.443 391.345)"/></g></g></g><path d="M838 388 1058 388 1058 594 838 594Z" stroke="#000000" stroke-width="6" stroke-linecap="butt" stroke-linejoin="round" stroke-miterlimit="10" stroke-opacity="1" fill="none" fill-rule="evenodd"/></g></svg>